name analog
datacolumns 19
datarows 18
range 0.0 0.0085
endheader
time	ground_force_vx	ground_force_vy	ground_force_vz	ground_force_px	ground_force_py	ground_force_pz	l_ground_force_vx	l_ground_force_vy	l_ground_force_vz	l_ground_force_px	l_ground_force_py	l_ground_force_pz	ground_torque_x	ground_torque_y	ground_torque_z	l_ground_torque_x	l_ground_torque_y	l_ground_torque_z
0.0	-0.0	-0.0	-0.0	6.224995136260986	9.671380043029783	-668.042724609375	-10.154777526855469	-9.252129554748535	-119.67342376708984	-0.0	-0.0	-0.0	-0.0	-0.0	-0.0	42766.7890625	17327.7578125	-5942.96142578125
0.0005	-0.0	-0.0	-0.0	5.440056324005127	9.828855514526367	-666.4434814453125	-10.091206550598145	-9.757427215576172	-123.59967041015624	-0.0	-0.0	-0.0	-0.0	-0.0	-0.0	43539.65234375	17740.404296875	-6016.38623046875
0.001	-0.0	-0.0	-0.0	4.1056318283081055	10.20445728302002	-662.0319213867188	-10.579703330993652	-10.665156364440918	-125.7044677734375	-0.0	-0.0	-0.0	-0.0	-0.0	-0.0	44530.796875	17960.021484375	-6276.65673828125
0.0015	-0.0	-0.0	-0.0	4.012203693389893	10.387092590332031	-659.042724609375	-10.977256774902344	-11.105751991271973	-128.49148559570312	-0.0	-0.0	-0.0	-0.0	-0.0	-0.0	45267.7578125	18200.8828125	-6477.38818359375
0.002	-0.0	-0.0	-0.0	3.4537672996521	10.051335334777832	-658.6097412109375	-11.26626968383789	-11.54892635345459	-129.26995849609375	-0.0	-0.0	-0.0	-0.0	-0.0	-0.0	45935.40234375	18431.71875	-6596.595703125
0.0025	-0.0	-0.0	-0.0	3.657630920410156	9.272314071655272	-657.187744140625	-11.288788795471191	-12.520164489746094	-132.23983764648438	-0.0	-0.0	-0.0	-0.0	-0.0	-0.0	46899.84765625	18896.466796875	-6833.93798828125
0.003	-0.0	-0.0	-0.0	3.7468414306640634	8.315251350402832	-655.501953125	-11.86510181427002	-12.54167938232422	-135.033447265625	-0.0	-0.0	-0.0	-0.0	-0.0	-0.0	48206.33203125	18749.470703125	-6908.5361328125
0.0035	-0.0	-0.0	-0.0	4.374551773071289	7.889657497406006	-655.9466552734375	-11.931588172912598	-12.342949867248535	-137.47842407226562	-0.0	-0.0	-0.0	-0.0	-0.0	-0.0	48576.70703125	19240.9921875	-7071.654296875
0.004	-0.0	-0.0	-0.0	5.131304740905762	7.638684749603271	-657.5159301757812	-12.219863891601562	-12.519739151000977	-139.31149291992188	-0.0	-0.0	-0.0	-0.0	-0.0	-0.0	49330.234375	19530.869140625	-7049.6796875
0.0045000000000000005	-0.0	-0.0	-0.0	5.33311939239502	6.347752571105957	-657.5143432617188	-12.220797538757324	-12.784438133239746	-142.6254425048828	-0.0	-0.0	-0.0	-0.0	-0.0	-0.0	50122.796875	19880.640625	-7123.85009765625
0.005	-0.0	-0.0	-0.0	5.686179161071777	6.43670129776001	-660.1698608398438	-12.597679138183594	-12.298980712890623	-144.0206298828125	-0.0	-0.0	-0.0	-0.0	-0.0	-0.0	50906.16796875	20121.154296875	-7398.17919921875
0.0055	-0.0	-0.0	-0.0	5.577799320220947	5.572790622711182	-658.2518310546875	-12.929329872131348	-12.52145767211914	-145.68455505371094	-0.0	-0.0	-0.0	-0.0	-0.0	-0.0	51530.5703125	20206.59375	-7420.88037109375
0.006	-0.0	-0.0	-0.0	5.705024242401123	4.634780883789063	-658.1596069335938	-13.151680946350098	-12.960901260375977	-148.56158447265625	-0.0	-0.0	-0.0	-0.0	-0.0	-0.0	52365.0	20629.4140625	-7569.45654296875
0.006500000000000001	-0.0	-0.0	-0.0	5.775227069854736	3.541780948638916	-656.6726684570312	-13.484039306640623	-12.918781280517578	-151.17715454101562	-0.0	-0.0	-0.0	-0.0	-0.0	-0.0	53635.58984375	21063.060546875	-7784.38330078125
0.007	-0.0	-0.0	-0.0	5.404638290405273	3.082394599914551	-655.2420043945312	-14.214618682861328	-13.13571834564209	-154.31826782226562	-0.0	-0.0	-0.0	-0.0	-0.0	-0.0	54409.65625	21474.978515625	-8089.05224609375
0.0075	-0.0	-0.0	-0.0	5.418244361877441	2.500823974609375	-653.1231079101562	-14.793989181518556	-13.139309883117676	-156.33840942382812	-0.0	-0.0	-0.0	-0.0	-0.0	-0.0	55532.21875	21893.970703125	-8400.548828125
0.008	-0.0	-0.0	-0.0	5.59662389755249	2.20464301109314	-648.9575805664062	-15.456265449523926	-13.180429458618164	-158.5958709716797	-0.0	-0.0	-0.0	-0.0	-0.0	-0.0	56441.8046875	22148.755859375	-8587.2490234375
0.0085	-0.0	-0.0	-0.0	5.269083023071289	1.6223863363265991	-645.4475708007812	-16.23163604736328	-13.07403564453125	-161.21835327148438	-0.0	-0.0	-0.0	-0.0	-0.0	-0.0	57067.25390625	22600.16015625	-8750.517578125
